{
  "accessors": [
    {
      "bufferView": 2,
      "componentType": 5126,
      "count": 54593,
      "max": [
        0.16490641236305237,
        0.37080278992652893,
        0.2207092046737671
      ],
      "min": [
        -0.12048405408859253,
        -0.28139808773994446,
        -0.21087372303009033
      ],
      "type": "VEC3"
    },
    {
      "bufferView": 2,
      "byteOffset": 655116,
      "componentType": 5126,
      "count": 54593,
      "max": [
        0.999987781047821,
        0.9999594688415527,
        0.999976396560669
      ],
      "min": [
        -0.9999960064888,
        -0.9999593496322632,
        -0.9998572468757629
      ],
      "type": "VEC3"
    },
    {
      "bufferView": 3,
      "componentType": 5126,
      "count": 54593,
      "max": [
        0.9999926090240479,
        0.9999499320983887,
        0.9999967813491821,
        1.0
      ],
      "min": [
        -0.9951949119567871,
        -0.9929243922233582,
        -0.9999046325683594,
        -1.0
      ],
      "type": "VEC4"
    },
    {
      "bufferView": 1,
      "componentType": 5126,
      "count": 54593,
      "max": [
        0.999974250793457,
        0.9823068380355835
      ],
      "min": [
        2.000853419303894e-05,
        2.915412187576294e-05
      ],
      "type": "VEC2"
    },
    {
      "bufferView": 0,
      "componentType": 5125,
      "count": 319893,
      "type": "SCALAR"
    }
  ],
  "asset": {
    "extras": {
      "author": "MuseeduMasqueBinche (https://sketchfab.com/MuseeduMasqueBinche)",
      "license": "CC-BY-4.0 (http://creativecommons.org/licenses/by/4.0/)",
      "source": "https://sketchfab.com/3d-models/n-inv-apc-145-c03c5e9cb0c444bf8c4328a260b15a11",
      "title": "N° inv. APC 145"
    },
    "generator": "Sketchfab-16.0.0",
    "version": "2.0"
  },
  "bufferViews": [
    {
      "buffer": 0,
      "byteLength": 1279572,
      "name": "floatBufferViews",
      "target": 34963
    },
    {
      "buffer": 0,
      "byteLength": 436744,
      "byteOffset": 1279572,
      "byteStride": 8,
      "name": "floatBufferViews",
      "target": 34962
    },
    {
      "buffer": 0,
      "byteLength": 1310232,
      "byteOffset": 1716316,
      "byteStride": 12,
      "name": "floatBufferViews",
      "target": 34962
    },
    {
      "buffer": 0,
      "byteLength": 873488,
      "byteOffset": 3026548,
      "byteStride": 16,
      "name": "floatBufferViews",
      "target": 34962
    }
  ],
  "buffers": [
    {
      "byteLength": 3900036,
      "uri": "scene.bin"
    }
  ],
  "images": [
    {
      "uri": "textures/MAR_MUM_APC_00145_Base_baseColor.png"
    },
    {
      "uri": "textures/MAR_MUM_APC_00145_Base_metallicRoughness.png"
    },
    {
      "uri": "textures/MAR_MUM_APC_00145_Base_normal.png"
    }
  ],
  "materials": [
    {
      "doubleSided": true,
      "name": "MAR_MUM_APC_00145_Base",
      "normalTexture": {
        "index": 2
      },
      "pbrMetallicRoughness": {
        "baseColorTexture": {
          "index": 0
        },
        "metallicRoughnessTexture": {
          "index": 1
        }
      }
    }
  ],
  "meshes": [
    {
      "name": "MAR_MUM_APC_00145_Model_MAR_MUM_APC_00145_Base_0",
      "primitives": [
        {
          "attributes": {
            "NORMAL": 1,
            "POSITION": 0,
            "TANGENT": 2,
            "TEXCOORD_0": 3
          },
          "indices": 4,
          "material": 0,
          "mode": 4
        }
      ]
    }
  ],
  "nodes": [
    {
      "children": [
        1
      ],
      "matrix": [
        1.0,
        0.0,
        0.0,
        0.0,
        0.0,
        2.220446049250313e-16,
        -1.0,
        0.0,
        0.0,
        1.0,
        2.220446049250313e-16,
        0.0,
        0.0,
        0.0,
        0.0,
        1.0
      ],
      "name": "Sketchfab_model"
    },
    {
      "children": [
        2
      ],
      "matrix": [
        0.009999999776482582,
        0.0,
        0.0,
        0.0,
        0.0,
        0.0,
        0.009999999776482582,
        0.0,
        0.0,
        -0.009999999776482582,
        0.0,
        0.0,
        0.0,
        0.0,
        0.0,
        1.0
      ],
      "name": "35477cbb76b742a584cb04894b1cf424.fbx"
    },
    {
      "children": [
        3
      ],
      "name": "RootNode"
    },
    {
      "children": [
        4
      ],
      "name": "MAR_MUM_APC_00145_Model"
    },
    {
      "mesh": 0,
      "name": "MAR_MUM_APC_00145_Model_MAR_MUM_APC_00145_Base_0"
    }
  ],
  "samplers": [
    {
      "magFilter": 9729,
      "minFilter": 9987,
      "wrapS": 10497,
      "wrapT": 10497
    }
  ],
  "scene": 0,
  "scenes": [
    {
      "name": "Sketchfab_Scene",
      "nodes": [
        0
      ]
    }
  ],
  "textures": [
    {
      "sampler": 0,
      "source": 0
    },
    {
      "sampler": 0,
      "source": 1
    },
    {
      "sampler": 0,
      "source": 2
    }
  ]
}
