{
  "accessors": [
    {
      "bufferView": 2,
      "componentType": 5126,
      "count": 65532,
      "max": [
        101.49305725097656,
        97.12652587890625,
        89.30719757080078
      ],
      "min": [
        -75.02422332763672,
        -174.09275817871094,
        -150.0006103515625
      ],
      "type": "VEC3"
    },
    {
      "bufferView": 2,
      "byteOffset": 786384,
      "componentType": 5126,
      "count": 65532,
      "max": [
        1.0,
        1.0,
        1.0
      ],
      "min": [
        -1.0,
        -1.0,
        -1.0
      ],
      "type": "VEC3"
    },
    {
      "bufferView": 1,
      "componentType": 5126,
      "count": 65532,
      "max": [
        0.9952390193939209,
        0.9992190003395081
      ],
      "min": [
        0.0007810000097379088,
        0.000813000020571053
      ],
      "type": "VEC2"
    },
    {
      "bufferView": 0,
      "componentType": 5125,
      "count": 332364,
      "type": "SCALAR"
    },
    {
      "bufferView": 2,
      "byteOffset": 1572768,
      "componentType": 5126,
      "count": 65532,
      "max": [
        98.415771484375,
        115.04669189453125,
        50.490203857421875
      ],
      "min": [
        -78.03838348388672,
        -173.86460876464844,
        -153.1536102294922
      ],
      "type": "VEC3"
    },
    {
      "bufferView": 2,
      "byteOffset": 2359152,
      "componentType": 5126,
      "count": 65532,
      "max": [
        1.0,
        1.0,
        0.9999900460243225
      ],
      "min": [
        -1.0,
        -1.0,
        -1.0
      ],
      "type": "VEC3"
    },
    {
      "bufferView": 1,
      "byteOffset": 524256,
      "componentType": 5126,
      "count": 65532,
      "max": [
        0.9395340085029602,
        0.5421879887580872
      ],
      "min": [
        0.019531000405550003,
        0.0025080000050365925
      ],
      "type": "VEC2"
    },
    {
      "bufferView": 0,
      "byteOffset": 1329456,
      "componentType": 5125,
      "count": 362328,
      "type": "SCALAR"
    },
    {
      "bufferView": 2,
      "byteOffset": 3145536,
      "componentType": 5126,
      "count": 65532,
      "max": [
        92.11577606201172,
        59.71865463256836,
        95.97125244140625
      ],
      "min": [
        -87.88423156738281,
        -137.92184448242188,
        -155.5481414794922
      ],
      "type": "VEC3"
    },
    {
      "bufferView": 2,
      "byteOffset": 3931920,
      "componentType": 5126,
      "count": 65532,
      "max": [
        1.0,
        1.0,
        1.0
      ],
      "min": [
        -1.0,
        -1.0,
        -1.0
      ],
      "type": "VEC3"
    },
    {
      "bufferView": 1,
      "byteOffset": 1048512,
      "componentType": 5126,
      "count": 65532,
      "max": [
        0.8348299860954285,
        0.791405975818634
      ],
      "min": [
        0.017968999221920967,
        0.000805000017862767
      ],
      "type": "VEC2"
    },
    {
      "bufferView": 0,
      "byteOffset": 2778768,
      "componentType": 5125,
      "count": 341298,
      "type": "SCALAR"
    },
    {
      "bufferView": 2,
      "byteOffset": 4718304,
      "componentType": 5126,
      "count": 65532,
      "max": [
        89.71577453613281,
        89.92652893066406,
        86.66966247558594
      ],
      "min": [
        -74.86453247070313,
        -156.50283813476563,
        -118.20060729980469
      ],
      "type": "VEC3"
    },
    {
      "bufferView": 2,
      "byteOffset": 5504688,
      "componentType": 5126,
      "count": 65532,
      "max": [
        1.0,
        1.0,
        0.999147355556488
      ],
      "min": [
        -1.0,
        -1.0,
        -1.0
      ],
      "type": "VEC3"
    },
    {
      "bufferView": 1,
      "byteOffset": 1572768,
      "componentType": 5126,
      "count": 65532,
      "max": [
        0.8423429727554321,
        0.6984379887580872
      ],
      "min": [
        0.15136900544166565,
        0.09013599902391434
      ],
      "type": "VEC2"
    },
    {
      "bufferView": 0,
      "byteOffset": 4143960,
      "componentType": 5125,
      "count": 330780,
      "type": "SCALAR"
    },
    {
      "bufferView": 2,
      "byteOffset": 6291072,
      "componentType": 5126,
      "count": 65532,
      "max": [
        105.94575500488281,
        132.43304443359375,
        99.29940032958984
      ],
      "min": [
        -75.88423156738281,
        -134.0862579345703,
        -78.90060424804688
      ],
      "type": "VEC3"
    },
    {
      "bufferView": 2,
      "byteOffset": 7077456,
      "componentType": 5126,
      "count": 65532,
      "max": [
        0.9999999403953552,
        1.0,
        1.0
      ],
      "min": [
        -1.0,
        -0.9907768368721008,
        -1.0
      ],
      "type": "VEC3"
    },
    {
      "bufferView": 1,
      "byteOffset": 2097024,
      "componentType": 5126,
      "count": 65532,
      "max": [
        0.7211999893188477,
        0.672402024269104
      ],
      "min": [
        0.1530189961194992,
        0.2650899887084961
      ],
      "type": "VEC2"
    },
    {
      "bufferView": 0,
      "byteOffset": 5467080,
      "componentType": 5125,
      "count": 356952,
      "type": "SCALAR"
    },
    {
      "bufferView": 2,
      "byteOffset": 7863840,
      "componentType": 5126,
      "count": 65532,
      "max": [
        79.1906509399414,
        128.27162170410156,
        164.71896362304688
      ],
      "min": [
        -119.60250091552734,
        -151.1934051513672,
        -106.1844711303711
      ],
      "type": "VEC3"
    },
    {
      "bufferView": 2,
      "byteOffset": 8650224,
      "componentType": 5126,
      "count": 65532,
      "max": [
        0.9992036819458008,
        0.9999940991401672,
        1.0
      ],
      "min": [
        -1.0,
        -0.975576639175415,
        -0.9802271723747253
      ],
      "type": "VEC3"
    },
    {
      "bufferView": 1,
      "byteOffset": 2621280,
      "componentType": 5126,
      "count": 65532,
      "max": [
        0.7081069946289063,
        0.9849029779434204
      ],
      "min": [
        0.03415900096297264,
        0.2752310037612915
      ],
      "type": "VEC2"
    },
    {
      "bufferView": 0,
      "byteOffset": 6894888,
      "componentType": 5125,
      "count": 343518,
      "type": "SCALAR"
    },
    {
      "bufferView": 2,
      "byteOffset": 9436608,
      "componentType": 5126,
      "count": 65532,
      "max": [
        60.35623550415039,
        128.24534606933594,
        164.71896362304688
      ],
      "min": [
        -118.78423309326172,
        -151.96139526367188,
        -155.35360717773438
      ],
      "type": "VEC3"
    },
    {
      "bufferView": 2,
      "byteOffset": 10222992,
      "componentType": 5126,
      "count": 65532,
      "max": [
        0.9149562120437622,
        0.999967098236084,
        0.9999895691871643
      ],
      "min": [
        -0.9999997019767761,
        -0.9987331628799438,
        -0.9998564720153809
      ],
      "type": "VEC3"
    },
    {
      "bufferView": 1,
      "byteOffset": 3145536,
      "componentType": 5126,
      "count": 65532,
      "max": [
        0.7014359831809998,
        0.9992190003395081
      ],
      "min": [
        0.0007810000097379088,
        0.5576260089874268
      ],
      "type": "VEC2"
    },
    {
      "bufferView": 0,
      "byteOffset": 8268960,
      "componentType": 5125,
      "count": 320325,
      "type": "SCALAR"
    },
    {
      "bufferView": 2,
      "byteOffset": 11009376,
      "componentType": 5126,
      "count": 65532,
      "max": [
        104.55764770507813,
        127.12652587890625,
        156.6675262451172
      ],
      "min": [
        -108.28423309326172,
        -132.67347717285156,
        -139.8006134033203
      ],
      "type": "VEC3"
    },
    {
      "bufferView": 2,
      "byteOffset": 11795760,
      "componentType": 5126,
      "count": 65532,
      "max": [
        1.0,
        1.0,
        1.0
      ],
      "min": [
        -1.0,
        -1.0,
        -1.0
      ],
      "type": "VEC3"
    },
    {
      "bufferView": 1,
      "byteOffset": 3669792,
      "componentType": 5126,
      "count": 65532,
      "max": [
        0.9559190273284912,
        0.9992190003395081
      ],
      "min": [
        0.06164700165390968,
        0.27569401264190674
      ],
      "type": "VEC2"
    },
    {
      "bufferView": 0,
      "byteOffset": 9550260,
      "componentType": 5125,
      "count": 335340,
      "type": "SCALAR"
    },
    {
      "bufferView": 2,
      "byteOffset": 12582144,
      "componentType": 5126,
      "count": 52402,
      "max": [
        52.81576919555664,
        85.42652893066406,
        83.09940338134766
      ],
      "min": [
        -92.98423767089844,
        -147.073486328125,
        -140.10060119628906
      ],
      "type": "VEC3"
    },
    {
      "bufferView": 2,
      "byteOffset": 13210968,
      "componentType": 5126,
      "count": 52402,
      "max": [
        1.0,
        1.0,
        0.9968453049659729
      ],
      "min": [
        -0.9991133809089661,
        -1.0,
        -1.0
      ],
      "type": "VEC3"
    },
    {
      "bufferView": 1,
      "byteOffset": 4194048,
      "componentType": 5126,
      "count": 52402,
      "max": [
        0.9151290059089661,
        0.6956449747085571
      ],
      "min": [
        0.15000000596046448,
        0.2524990141391754
      ],
      "type": "VEC2"
    },
    {
      "bufferView": 0,
      "byteOffset": 10891620,
      "componentType": 5125,
      "count": 277095,
      "type": "SCALAR"
    }
  ],
  "asset": {
    "extras": {
      "author": "Alienor.org, Conseil des musées (https://sketchfab.com/alienor.org)",
      "license": "CC-BY-NC-ND-4.0 (http://creativecommons.org/licenses/by-nc-nd/4.0/)",
      "source": "https://sketchfab.com/3d-models/masque-gelede-782077cc06ef4c2dbee3ba7845e76bb5",
      "title": "Masque gélédé"
    },
    "generator": "Sketchfab-12.86.0",
    "version": "2.0"
  },
  "bufferViews": [
    {
      "buffer": 0,
      "byteLength": 12000000,
      "name": "floatBufferViews",
      "target": 34963
    },
    {
      "buffer": 0,
      "byteLength": 4613264,
      "byteOffset": 12000000,
      "byteStride": 8,
      "name": "floatBufferViews",
      "target": 34962
    },
    {
      "buffer": 0,
      "byteLength": 13839792,
      "byteOffset": 16613264,
      "byteStride": 12,
      "name": "floatBufferViews",
      "target": 34962
    }
  ],
  "buffers": [
    {
      "byteLength": 30453056,
      "uri": "scene.bin"
    }
  ],
  "extensionsRequired": [
    "KHR_materials_pbrSpecularGlossiness"
  ],
  "extensionsUsed": [
    "KHR_materials_pbrSpecularGlossiness"
  ],
  "images": [
    {
      "uri": "textures/material_0_diffuse.jpeg"
    }
  ],
  "materials": [
    {
      "doubleSided": true,
      "extensions": {
        "KHR_materials_pbrSpecularGlossiness": {
          "diffuseFactor": [
            1.0,
            1.0,
            1.0,
            1.0
          ],
          "diffuseTexture": {
            "index": 0
          },
          "glossinessFactor": 0.0,
          "specularFactor": [
            0.0,
            0.0,
            0.0
          ]
        }
      },
      "name": "material_0"
    }
  ],
  "meshes": [
    {
      "name": "Object_0",
      "primitives": [
        {
          "attributes": {
            "NORMAL": 1,
            "POSITION": 0,
            "TEXCOORD_0": 2
          },
          "indices": 3,
          "material": 0,
          "mode": 4
        }
      ]
    },
    {
      "name": "Object_1",
      "primitives": [
        {
          "attributes": {
            "NORMAL": 5,
            "POSITION": 4,
            "TEXCOORD_0": 6
          },
          "indices": 7,
          "material": 0,
          "mode": 4
        }
      ]
    },
    {
      "name": "Object_2",
      "primitives": [
        {
          "attributes": {
            "NORMAL": 9,
            "POSITION": 8,
            "TEXCOORD_0": 10
          },
          "indices": 11,
          "material": 0,
          "mode": 4
        }
      ]
    },
    {
      "name": "Object_3",
      "primitives": [
        {
          "attributes": {
            "NORMAL": 13,
            "POSITION": 12,
            "TEXCOORD_0": 14
          },
          "indices": 15,
          "material": 0,
          "mode": 4
        }
      ]
    },
    {
      "name": "Object_4",
      "primitives": [
        {
          "attributes": {
            "NORMAL": 17,
            "POSITION": 16,
            "TEXCOORD_0": 18
          },
          "indices": 19,
          "material": 0,
          "mode": 4
        }
      ]
    },
    {
      "name": "Object_5",
      "primitives": [
        {
          "attributes": {
            "NORMAL": 21,
            "POSITION": 20,
            "TEXCOORD_0": 22
          },
          "indices": 23,
          "material": 0,
          "mode": 4
        }
      ]
    },
    {
      "name": "Object_6",
      "primitives": [
        {
          "attributes": {
            "NORMAL": 25,
            "POSITION": 24,
            "TEXCOORD_0": 26
          },
          "indices": 27,
          "material": 0,
          "mode": 4
        }
      ]
    },
    {
      "name": "Object_7",
      "primitives": [
        {
          "attributes": {
            "NORMAL": 29,
            "POSITION": 28,
            "TEXCOORD_0": 30
          },
          "indices": 31,
          "material": 0,
          "mode": 4
        }
      ]
    },
    {
      "name": "Object_8",
      "primitives": [
        {
          "attributes": {
            "NORMAL": 33,
            "POSITION": 32,
            "TEXCOORD_0": 34
          },
          "indices": 35,
          "material": 0,
          "mode": 4
        }
      ]
    }
  ],
  "nodes": [
    {
      "children": [
        1
      ],
      "matrix": [
        0.9934337735176086,
        -0.08309608697891234,
        -0.07864114642143251,
        0.0,
        -0.07399576902389526,
        0.057581819593906625,
        -0.9955947995185852,
        0.0,
        0.08725833147764206,
        0.9948765635490417,
        0.05105496570467971,
        0.0,
        0.0,
        0.0,
        0.0,
        1.0
      ],
      "name": "Sketchfab_model"
    },
    {
      "children": [
        2,
        3,
        4,
        5,
        6,
        7,
        8,
        9,
        10
      ],
      "name": "vieuxmasque.obj.cleaner.materialmerger.gles"
    },
    {
      "mesh": 0,
      "name": "Object_2"
    },
    {
      "mesh": 1,
      "name": "Object_3"
    },
    {
      "mesh": 2,
      "name": "Object_4"
    },
    {
      "mesh": 3,
      "name": "Object_5"
    },
    {
      "mesh": 4,
      "name": "Object_6"
    },
    {
      "mesh": 5,
      "name": "Object_7"
    },
    {
      "mesh": 6,
      "name": "Object_8"
    },
    {
      "mesh": 7,
      "name": "Object_9"
    },
    {
      "mesh": 8,
      "name": "Object_10"
    }
  ],
  "samplers": [
    {
      "magFilter": 9729,
      "minFilter": 9987,
      "wrapS": 10497,
      "wrapT": 10497
    }
  ],
  "scene": 0,
  "scenes": [
    {
      "name": "Sketchfab_Scene",
      "nodes": [
        0
      ]
    }
  ],
  "textures": [
    {
      "sampler": 0,
      "source": 0
    }
  ]
}
